<mxfile host="Electron" modified="2023-10-09T07:41:21.102Z" agent="Mozilla/5.0 (Windows NT 10.0; Win64; x64) AppleWebKit/537.36 (KHTML, like Gecko) draw.io/21.5.0 Chrome/112.0.5615.204 Electron/24.5.1 Safari/537.36" etag="H9hd1YVIzCiaPdRnYxDD" version="21.5.0" type="device">
  <diagram name="Página-1" id="QYFte_dihIafi_NQQJou">
    <mxGraphModel dx="1418" dy="820" grid="1" gridSize="10" guides="1" tooltips="1" connect="1" arrows="1" fold="1" page="1" pageScale="1" pageWidth="827" pageHeight="1169" math="0" shadow="0">
      <root>
        <mxCell id="0" />
        <mxCell id="1" parent="0" />
        <mxCell id="8x-zQd267Vqby62SyEfR-9" style="edgeStyle=orthogonalEdgeStyle;rounded=0;orthogonalLoop=1;jettySize=auto;html=1;entryX=0.5;entryY=0;entryDx=0;entryDy=0;labelBackgroundColor=none;fontColor=default;" parent="1" source="8x-zQd267Vqby62SyEfR-1" target="8x-zQd267Vqby62SyEfR-2" edge="1">
          <mxGeometry relative="1" as="geometry" />
        </mxCell>
        <mxCell id="8x-zQd267Vqby62SyEfR-1" value="factorial" style="strokeWidth=2;html=1;shape=mxgraph.flowchart.start_1;whiteSpace=wrap;fontFamily=Architects Daughter;fontSource=https%3A%2F%2Ffonts.googleapis.com%2Fcss%3Ffamily%3DArchitects%2BDaughter;fontSize=20;hachureGap=4;labelBackgroundColor=none;" parent="1" vertex="1">
          <mxGeometry x="319.95" y="58" width="100" height="60" as="geometry" />
        </mxCell>
        <mxCell id="8x-zQd267Vqby62SyEfR-14" style="edgeStyle=orthogonalEdgeStyle;rounded=0;hachureGap=4;orthogonalLoop=1;jettySize=auto;html=1;entryX=0.5;entryY=0;entryDx=0;entryDy=0;fontFamily=Architects Daughter;fontSource=https%3A%2F%2Ffonts.googleapis.com%2Fcss%3Ffamily%3DArchitects%2BDaughter;fontSize=16;labelBackgroundColor=none;fontColor=default;" parent="1" source="8x-zQd267Vqby62SyEfR-2" target="8x-zQd267Vqby62SyEfR-13" edge="1">
          <mxGeometry relative="1" as="geometry" />
        </mxCell>
        <mxCell id="8x-zQd267Vqby62SyEfR-2" value="&lt;div style=&quot;font-size: 18px;&quot;&gt;&lt;br style=&quot;font-size: 18px;&quot;&gt;&lt;/div&gt;&lt;div style=&quot;font-size: 18px;&quot;&gt;&lt;br style=&quot;font-size: 18px;&quot;&gt;&lt;/div&gt;&lt;div style=&quot;font-size: 18px;&quot;&gt;&quot;Escribe un número&quot;&lt;/div&gt;&lt;div style=&quot;font-size: 18px;&quot;&gt;→ n&lt;br style=&quot;font-size: 18px;&quot;&gt;&lt;/div&gt;" style="html=1;strokeWidth=2;shape=manualInput;whiteSpace=wrap;rounded=1;size=26;arcSize=14;fontFamily=Architects Daughter;fontSource=https%3A%2F%2Ffonts.googleapis.com%2Fcss%3Ffamily%3DArchitects%2BDaughter;fontSize=20;labelBackgroundColor=none;hachureGap=4;" parent="1" vertex="1">
          <mxGeometry x="269.95" y="148" width="200" height="90" as="geometry" />
        </mxCell>
        <mxCell id="8x-zQd267Vqby62SyEfR-19" style="edgeStyle=orthogonalEdgeStyle;rounded=0;hachureGap=4;orthogonalLoop=1;jettySize=auto;html=1;entryX=0.5;entryY=0;entryDx=0;entryDy=0;fontFamily=Architects Daughter;fontSource=https%3A%2F%2Ffonts.googleapis.com%2Fcss%3Ffamily%3DArchitects%2BDaughter;fontSize=16;labelBackgroundColor=none;fontColor=default;" parent="1" source="8x-zQd267Vqby62SyEfR-13" target="8x-zQd267Vqby62SyEfR-16" edge="1">
          <mxGeometry relative="1" as="geometry" />
        </mxCell>
        <mxCell id="8x-zQd267Vqby62SyEfR-13" value="&lt;div&gt;producto ← 1&lt;/div&gt;" style="rounded=1;whiteSpace=wrap;html=1;absoluteArcSize=1;arcSize=14;strokeWidth=2;hachureGap=4;fontFamily=Architects Daughter;fontSource=https%3A%2F%2Ffonts.googleapis.com%2Fcss%3Ffamily%3DArchitects%2BDaughter;fontSize=20;labelBackgroundColor=none;" parent="1" vertex="1">
          <mxGeometry x="269.95" y="267" width="200" height="60" as="geometry" />
        </mxCell>
        <mxCell id="8x-zQd267Vqby62SyEfR-15" value="" style="shape=waypoint;fillStyle=solid;size=6;pointerEvents=1;points=[];resizable=0;rotatable=0;perimeter=centerPerimeter;snapToPoint=1;hachureGap=4;fontFamily=Architects Daughter;fontSource=https%3A%2F%2Ffonts.googleapis.com%2Fcss%3Ffamily%3DArchitects%2BDaughter;fontSize=20;labelBackgroundColor=none;" parent="1" vertex="1">
          <mxGeometry x="359.95" y="438" width="20" height="20" as="geometry" />
        </mxCell>
        <mxCell id="8x-zQd267Vqby62SyEfR-16" value="&lt;div&gt;factor ← n&lt;br&gt;&lt;/div&gt;" style="rounded=1;whiteSpace=wrap;html=1;absoluteArcSize=1;arcSize=14;strokeWidth=2;hachureGap=4;fontFamily=Architects Daughter;fontSource=https%3A%2F%2Ffonts.googleapis.com%2Fcss%3Ffamily%3DArchitects%2BDaughter;fontSize=20;labelBackgroundColor=none;" parent="1" vertex="1">
          <mxGeometry x="269.95" y="378" width="200" height="40" as="geometry" />
        </mxCell>
        <mxCell id="8x-zQd267Vqby62SyEfR-17" style="edgeStyle=orthogonalEdgeStyle;rounded=0;hachureGap=4;orthogonalLoop=1;jettySize=auto;html=1;entryX=0.672;entryY=0.267;entryDx=0;entryDy=0;entryPerimeter=0;fontFamily=Architects Daughter;fontSource=https%3A%2F%2Ffonts.googleapis.com%2Fcss%3Ffamily%3DArchitects%2BDaughter;fontSize=16;labelBackgroundColor=none;fontColor=default;" parent="1" source="8x-zQd267Vqby62SyEfR-16" target="8x-zQd267Vqby62SyEfR-15" edge="1">
          <mxGeometry relative="1" as="geometry" />
        </mxCell>
        <mxCell id="8x-zQd267Vqby62SyEfR-18" style="edgeStyle=orthogonalEdgeStyle;rounded=0;hachureGap=4;orthogonalLoop=1;jettySize=auto;html=1;fontFamily=Architects Daughter;fontSource=https%3A%2F%2Ffonts.googleapis.com%2Fcss%3Ffamily%3DArchitects%2BDaughter;fontSize=16;labelBackgroundColor=none;fontColor=default;" parent="1" source="8x-zQd267Vqby62SyEfR-15" target="8x-zQd267Vqby62SyEfR-20" edge="1">
          <mxGeometry relative="1" as="geometry">
            <mxPoint x="369.5900000000001" y="455.9000000000001" as="targetPoint" />
          </mxGeometry>
        </mxCell>
        <mxCell id="8x-zQd267Vqby62SyEfR-25" value="&lt;div align=&quot;left&quot;&gt;&amp;nbsp;Sí&lt;/div&gt;" style="edgeStyle=orthogonalEdgeStyle;rounded=0;hachureGap=4;orthogonalLoop=1;jettySize=auto;html=1;entryX=0.5;entryY=0;entryDx=0;entryDy=0;fontFamily=Architects Daughter;fontSource=https%3A%2F%2Ffonts.googleapis.com%2Fcss%3Ffamily%3DArchitects%2BDaughter;fontSize=16;align=left;labelBackgroundColor=none;fontColor=default;" parent="1" source="8x-zQd267Vqby62SyEfR-20" target="8x-zQd267Vqby62SyEfR-24" edge="1">
          <mxGeometry x="-0.6" relative="1" as="geometry">
            <mxPoint as="offset" />
          </mxGeometry>
        </mxCell>
        <mxCell id="8x-zQd267Vqby62SyEfR-32" value="No" style="edgeStyle=orthogonalEdgeStyle;rounded=0;sketch=1;hachureGap=4;jiggle=2;curveFitting=1;orthogonalLoop=1;jettySize=auto;html=1;fontFamily=Architects Daughter;fontSource=https%3A%2F%2Ffonts.googleapis.com%2Fcss%3Ffamily%3DArchitects%2BDaughter;fontSize=16;entryX=0.5;entryY=0;entryDx=0;entryDy=0;verticalAlign=bottom;labelBackgroundColor=none;fontColor=default;" parent="1" source="8x-zQd267Vqby62SyEfR-20" target="8x-zQd267Vqby62SyEfR-28" edge="1">
          <mxGeometry x="-0.9403" relative="1" as="geometry">
            <Array as="points">
              <mxPoint x="99.94999999999999" y="538" />
              <mxPoint x="99.94999999999999" y="808" />
              <mxPoint x="369.95" y="808" />
            </Array>
            <mxPoint as="offset" />
          </mxGeometry>
        </mxCell>
        <mxCell id="8x-zQd267Vqby62SyEfR-20" value="¿ factor &amp;gt; 1 ?" style="strokeWidth=2;html=1;shape=mxgraph.flowchart.decision;whiteSpace=wrap;hachureGap=4;fontFamily=Architects Daughter;fontSource=https%3A%2F%2Ffonts.googleapis.com%2Fcss%3Ffamily%3DArchitects%2BDaughter;fontSize=20;labelBackgroundColor=none;" parent="1" vertex="1">
          <mxGeometry x="199.95" y="488" width="340" height="100" as="geometry" />
        </mxCell>
        <mxCell id="8x-zQd267Vqby62SyEfR-21" value="&lt;div&gt;factor ← factor - 1&lt;br&gt;&lt;/div&gt;" style="rounded=1;whiteSpace=wrap;html=1;absoluteArcSize=1;arcSize=14;strokeWidth=2;hachureGap=4;fontFamily=Architects Daughter;fontSource=https%3A%2F%2Ffonts.googleapis.com%2Fcss%3Ffamily%3DArchitects%2BDaughter;fontSize=20;labelBackgroundColor=none;" parent="1" vertex="1">
          <mxGeometry x="539.95" y="428" width="240" height="40" as="geometry" />
        </mxCell>
        <mxCell id="8x-zQd267Vqby62SyEfR-22" style="edgeStyle=orthogonalEdgeStyle;rounded=0;hachureGap=4;orthogonalLoop=1;jettySize=auto;html=1;fontFamily=Architects Daughter;fontSource=https%3A%2F%2Ffonts.googleapis.com%2Fcss%3Ffamily%3DArchitects%2BDaughter;fontSize=16;exitX=0;exitY=0.5;exitDx=0;exitDy=0;labelBackgroundColor=none;fontColor=default;" parent="1" source="8x-zQd267Vqby62SyEfR-21" target="8x-zQd267Vqby62SyEfR-15" edge="1">
          <mxGeometry relative="1" as="geometry">
            <mxPoint x="569.95" y="452.9999999999999" as="sourcePoint" />
            <mxPoint x="399.95" y="443.0000000000001" as="targetPoint" />
          </mxGeometry>
        </mxCell>
        <mxCell id="8x-zQd267Vqby62SyEfR-26" style="edgeStyle=orthogonalEdgeStyle;rounded=0;hachureGap=4;orthogonalLoop=1;jettySize=auto;html=1;fontFamily=Architects Daughter;fontSource=https%3A%2F%2Ffonts.googleapis.com%2Fcss%3Ffamily%3DArchitects%2BDaughter;fontSize=16;exitX=0.5;exitY=1;exitDx=0;exitDy=0;startArrow=none;startFill=0;labelBackgroundColor=none;fontColor=default;" parent="1" source="8x-zQd267Vqby62SyEfR-24" target="8x-zQd267Vqby62SyEfR-21" edge="1">
          <mxGeometry relative="1" as="geometry">
            <Array as="points">
              <mxPoint x="369.95" y="758" />
              <mxPoint x="659.95" y="758" />
            </Array>
          </mxGeometry>
        </mxCell>
        <mxCell id="8x-zQd267Vqby62SyEfR-24" value="&lt;div&gt;producto ← producto × factor&lt;br&gt;&lt;/div&gt;" style="rounded=1;whiteSpace=wrap;html=1;absoluteArcSize=1;arcSize=14;strokeWidth=2;hachureGap=4;fontFamily=Architects Daughter;fontSource=https%3A%2F%2Ffonts.googleapis.com%2Fcss%3Ffamily%3DArchitects%2BDaughter;fontSize=20;labelBackgroundColor=none;" parent="1" vertex="1">
          <mxGeometry x="189.95" y="638" width="360" height="50" as="geometry" />
        </mxCell>
        <mxCell id="8x-zQd267Vqby62SyEfR-27" value="&lt;div&gt;Fin&lt;/div&gt;&lt;div&gt;factorial&lt;br&gt;&lt;/div&gt;" style="strokeWidth=2;html=1;shape=mxgraph.flowchart.start_1;whiteSpace=wrap;hachureGap=4;fontFamily=Architects Daughter;fontSource=https%3A%2F%2Ffonts.googleapis.com%2Fcss%3Ffamily%3DArchitects%2BDaughter;fontSize=20;labelBackgroundColor=none;" parent="1" vertex="1">
          <mxGeometry x="294.95" y="1018" width="150" height="70" as="geometry" />
        </mxCell>
        <mxCell id="8x-zQd267Vqby62SyEfR-28" value="&lt;div&gt;texto ← el factorial de n es producto&lt;br&gt;&lt;/div&gt;" style="rounded=1;whiteSpace=wrap;html=1;absoluteArcSize=1;arcSize=14;strokeWidth=2;hachureGap=4;fontFamily=Architects Daughter;fontSource=https%3A%2F%2Ffonts.googleapis.com%2Fcss%3Ffamily%3DArchitects%2BDaughter;fontSize=20;labelBackgroundColor=none;" parent="1" vertex="1">
          <mxGeometry x="169.95" y="838" width="400" height="50" as="geometry" />
        </mxCell>
        <mxCell id="8x-zQd267Vqby62SyEfR-31" style="edgeStyle=orthogonalEdgeStyle;rounded=0;hachureGap=4;orthogonalLoop=1;jettySize=auto;html=1;fontFamily=Architects Daughter;fontSource=https%3A%2F%2Ffonts.googleapis.com%2Fcss%3Ffamily%3DArchitects%2BDaughter;fontSize=16;labelBackgroundColor=none;fontColor=default;" parent="1" source="8x-zQd267Vqby62SyEfR-29" target="8x-zQd267Vqby62SyEfR-27" edge="1">
          <mxGeometry relative="1" as="geometry" />
        </mxCell>
        <mxCell id="8x-zQd267Vqby62SyEfR-29" value="texto" style="strokeWidth=2;html=1;shape=mxgraph.flowchart.document2;whiteSpace=wrap;size=0.25;hachureGap=4;fontFamily=Architects Daughter;fontSource=https%3A%2F%2Ffonts.googleapis.com%2Fcss%3Ffamily%3DArchitects%2BDaughter;fontSize=20;labelBackgroundColor=none;" parent="1" vertex="1">
          <mxGeometry x="319.95" y="928" width="100" height="60" as="geometry" />
        </mxCell>
        <mxCell id="8x-zQd267Vqby62SyEfR-30" style="edgeStyle=orthogonalEdgeStyle;rounded=0;hachureGap=4;orthogonalLoop=1;jettySize=auto;html=1;entryX=0.5;entryY=0;entryDx=0;entryDy=0;entryPerimeter=0;fontFamily=Architects Daughter;fontSource=https%3A%2F%2Ffonts.googleapis.com%2Fcss%3Ffamily%3DArchitects%2BDaughter;fontSize=16;labelBackgroundColor=none;fontColor=default;" parent="1" source="8x-zQd267Vqby62SyEfR-28" target="8x-zQd267Vqby62SyEfR-29" edge="1">
          <mxGeometry relative="1" as="geometry" />
        </mxCell>
      </root>
    </mxGraphModel>
  </diagram>
</mxfile>
